{"title":"The Karate Kid - honchorella","uid":5781595,"size":732502341,"categoryP":"video","categoryS":"movies","magnet":"?xt=urn:btih:bb20e94d9d41d9c489a2d494bd49c1da8b2e6f85&amp;dn=The+Karate+Kid+-+honchorella&amp;tr=udp%3A%2F%2Ftracker.openbittorrent.com%3A80&amp;tr=udp%3A%2F%2Fopen.demonii.com%3A1337&amp;tr=udp%3A%2F%2Ftracker.coppersurfer.tk%3A6969&amp;tr=udp%3A%2F%2Fexodus.desync.com%3A6969","seeders":0,"leechers":0,"uploader":"honchorella31","files":7,"time":1282431278,"description":"\n\n12-year-old Dre Parker could've been the most popular kid in Detroit, but his mother's latest career move has landed him in China. Dre immediately falls for his classmate Mei Ying - and the feeling is mutual - but cultural differences make such a friendship impossible. Even worse, Dre's feelings make an enemy of the class bully, Cheng. In the land of kung fu, Dre knows only a little karate, and Cheng puts &quot;the karate kid&quot; on the floor with ease. With no friends in a strange land, Dre has nowhere to turn but maintenance man Mr. Han, who is secretly a master of kung fu. As Han teaches Dre that kung fu is not about punches and parries, but maturity and calm, Dre realizes that facing down the bullies will be the fight of his life.\n\nSource - The.Karate.Kid.2010.720p.BluRay.x264.DTS-WiKi\nHard Eng Subs When Needed.\nThis works on PC,WDTV Live,ipod touch,iphone all tested and work great.\nShould work on PS3 and 360 but untested.\n\nGeneral\nComplete name                    : The Karate Kid.mp4\nFormat                           : MPEG-4\nCodec ID                         : M4V \nFile size                        : 698 MiB\nDuration                         : 2h 12mn\nOverall bit rate                 : 736 Kbps\nEncoded date                     : UTC 2010-08-19 21:55:14\nTagged date                      : UTC 2010-08-19 21:55:14\n\nVideo\nID                               : 1\nFormat                           : AVC\nFormat/Info                      : Advanced Video Codec\nFormat profile                   : &lt;a class=&quot;__cf_email__&quot; href=&quot;/cdn-cgi/l/email-protection&quot; data-cfemail=&quot;1a587b697f7673747f5a5629342a&quot;&gt;[email&amp;#160;protected]&lt;/a&gt;&lt;script data-cfhash='f9e31' type=&quot;text/javascript&quot;&gt;\n/* &lt;![CDATA[ */!function(){try{var t=&quot;currentScript&quot;in document?document.currentScript:function(){for(var t=document.getElementsByTagName(&quot;script&quot;),e=t.length;e--;)if(t[e].getAttribute(&quot;data-cfhash&quot;))return t[e]}();if(t&amp;&amp;t.previousSibling){var e,r,n,i,c=t.previousSibling,a=c.getAttribute(&quot;data-cfemail&quot;);if(a){for(e=&quot;&quot;,r=parseInt(a.substr(0,2),16),n=2;a.length-n;n+=2)i=parseInt(a.substr(n,2),16)^r,e+=String.fromCharCode(i);e=document.createTextNode(e),c.parentNode.replaceChild(e,c)}t.parentNode.removeChild(t);}}catch(u){}}()/* ]]&gt; */&lt;/script&gt;\nFormat settings, CABAC           : No\nFormat settings, ReFrames        : 3 frames\nCodec ID                         : avc1\nCodec ID/Info                    : Advanced Video Coding\nDuration                         : 2h 12mn\nBit rate mode                    : Variable\nBit rate                         : 607 Kbps\nMaximum bit rate                 : 4 385 Kbps\nWidth                            : 640 pixels\nHeight                           : 272 pixels\nDisplay aspect ratio             : 2.35:1\nFrame rate mode                  : Constant\nFrame rate                       : 23.976 fps\nColor space                      : YUV\nChroma subsampling               : 4:2:0\nBit depth                        : 8 bits\nScan type                        : Progressive\nBits/(Pixel*Frame)               : 0.145\nStream size                      : 574 MiB (82%)\nTitle                            : The Karate Kid\nWriting library                  : x264 core 98 r1643 59a9e03\n\nAudio\nID                               : 2\nFormat                           : AAC\nFormat/Info                      : Advanced Audio Codec\nFormat version                   : Version 4\nFormat profile                   : LC\nFormat settings, SBR             : No\nCodec ID                         : 40\nDuration                         : 2h 12mn\nBit rate mode                    : Variable\nBit rate                         : 128 Kbps\nMaximum bit rate                 : 136 Kbps\nChannel(s)                       : 2 channels\nChannel positions                : Front: L R\nSampling rate                    : 48.0 KHz\nStream size                      : 122 MiB (17%)\n\n\n\n\n","torrent":{"xt":"urn:btih:bb20e94d9d41d9c489a2d494bd49c1da8b2e6f85","amp;dn":"The+Karate+Kid+-+honchorella","amp;tr":["udp%3A%2F%2Ftracker.openbittorrent.com%3A80","udp%3A%2F%2Fopen.demonii.com%3A1337","udp%3A%2F%2Ftracker.coppersurfer.tk%3A6969","udp%3A%2F%2Fexodus.desync.com%3A6969"],"infoHash":"bb20e94d9d41d9c489a2d494bd49c1da8b2e6f85","infoHashBuffer":{"type":"Buffer","data":[187,32,233,77,157,65,217,196,137,162,212,148,189,73,193,218,139,46,111,133]},"announce":[],"urlList":[]}}